<svg width="93" height="102" viewBox="0 0 93 102" fill="none" xmlns="http://www.w3.org/2000/svg">
<path fill-rule="evenodd" clip-rule="evenodd" d="M67.1854 -14.992C79.7466 -16.7558 91.0716 -8.06913 100.994 -1.48368C109.986 4.48362 117.031 12.1697 121.387 20.9791C125.415 29.1253 124.793 37.9646 124.849 46.7604C124.904 55.5991 126.854 64.9388 121.713 72.6967C116.54 80.5038 105.953 84.3042 96.8233 89.0524C87.3529 93.9776 78.3488 100.319 67.1854 101.056C55.7282 101.812 45.1586 97.0356 34.6745 93.1528C23.2112 88.9072 8.99905 86.3895 3.00774 77.2871C-2.98488 68.1828 1.36594 56.8621 4.13847 46.7604C6.50289 38.1456 11.484 30.4029 17.8295 23.2838C23.6806 16.7194 32.2369 12.7432 39.435 7.16101C48.9766 -0.238386 54.2678 -13.1779 67.1854 -14.992Z" fill="url(#paint0_linear_1518_5559)"/>
<defs>
<linearGradient id="paint0_linear_1518_5559" x1="62.6285" y1="-15.2234" x2="62.6285" y2="101.135" gradientUnits="userSpaceOnUse">
<stop stop-color="#C5DCFF"/>
<stop offset="0.96875" stop-color="#C5DCFF" stop-opacity="0.5"/>
<stop offset="1" stop-color="#C4C4C4" stop-opacity="0"/>
</linearGradient>
</defs>
</svg>
