<svg width="36" height="13" viewBox="0 0 36 13" fill="none" xmlns="http://www.w3.org/2000/svg">
<g filter="url(#filter0_d_1702_2)">
<path d="M9.90691 1.41166H10.2362L10.7868 2.93048L11.3361 1.41166H11.6666L10.9183 3.42937H10.654L9.90691 1.41166ZM9.74092 1.41166H10.0632L10.1214 2.80716V3.42937H9.74092V1.41166ZM11.5089 1.41166H11.8328V3.42937H11.4523V2.80716L11.5089 1.41166ZM12.8648 3.45709C12.7513 3.45709 12.6495 3.43861 12.559 3.40166C12.4686 3.3647 12.3916 3.31343 12.328 3.24783C12.2653 3.18131 12.2169 3.10417 12.1827 3.01641C12.1495 2.92772 12.133 2.83256 12.133 2.73094V2.6755C12.133 2.56002 12.1495 2.45516 12.1827 2.36092C12.216 2.26578 12.2629 2.18401 12.3239 2.11564C12.3847 2.04728 12.4576 1.99462 12.5424 1.95766C12.6273 1.92071 12.7209 1.90223 12.8232 1.90223C12.9294 1.90223 13.023 1.92025 13.1041 1.95628C13.1853 1.99138 13.2531 2.04127 13.3075 2.10594C13.3619 2.17062 13.4029 2.24821 13.4306 2.33875C13.4583 2.42838 13.4721 2.52769 13.4721 2.6367V2.79053H12.299V2.5383H13.1125V2.5106C13.1106 2.45239 13.0995 2.39927 13.0792 2.35123C13.0589 2.30227 13.0276 2.26346 12.9851 2.23482C12.9427 2.20525 12.8878 2.19047 12.8205 2.19047C12.7661 2.19047 12.7186 2.20249 12.678 2.2265C12.6384 2.2496 12.6052 2.28286 12.5784 2.32629C12.5525 2.36877 12.5332 2.41959 12.5203 2.47872C12.5073 2.53784 12.5009 2.60344 12.5009 2.6755V2.73094C12.5009 2.79376 12.5092 2.85196 12.5259 2.90554C12.5433 2.95912 12.5687 3.00579 12.6019 3.04551C12.636 3.08431 12.6766 3.11479 12.7237 3.13697C12.7716 3.15822 12.8261 3.16885 12.8869 3.16885C12.9635 3.16885 13.0327 3.15407 13.0944 3.1245C13.1571 3.09402 13.2115 3.04921 13.2577 2.99008L13.4417 3.18131C13.4103 3.22751 13.3679 3.27186 13.3143 3.31435C13.2618 3.35685 13.1982 3.3915 13.1235 3.41828C13.0487 3.44416 12.9625 3.45709 12.8648 3.45709ZM14.6148 3.11064V1.3008H14.9828V3.42937H14.6509L14.6148 3.11064ZM13.6534 2.69768V2.66857C13.6534 2.55402 13.6663 2.45009 13.6921 2.35677C13.7188 2.26254 13.7575 2.1817 13.8083 2.11426C13.8591 2.04682 13.9203 1.99462 13.9923 1.95766C14.0652 1.92071 14.1477 1.90223 14.2399 1.90223C14.3294 1.90223 14.4073 1.92025 14.4738 1.95628C14.5411 1.99231 14.5982 2.04358 14.6453 2.11011C14.6932 2.17661 14.7315 2.25561 14.7602 2.34708C14.7887 2.43761 14.8094 2.53738 14.8224 2.6464V2.72539C14.8094 2.83163 14.7887 2.9291 14.7602 3.01779C14.7315 3.10648 14.6932 3.18409 14.6453 3.25061C14.5982 3.3162 14.5411 3.36702 14.4738 3.40304C14.4064 3.43907 14.3275 3.45709 14.2372 3.45709C14.1458 3.45709 14.0638 3.43815 13.9909 3.40027C13.919 3.3624 13.8576 3.30928 13.8069 3.2409C13.7571 3.17254 13.7188 3.09216 13.6921 2.99978C13.6663 2.90739 13.6534 2.80669 13.6534 2.69768ZM14.02 2.66857V2.69768C14.02 2.76235 14.0255 2.82286 14.0366 2.87922C14.0476 2.93557 14.0657 2.98546 14.0906 3.02888C14.1155 3.07138 14.1472 3.10464 14.186 3.12865C14.2256 3.15268 14.2736 3.16469 14.3299 3.16469C14.4018 3.16469 14.4608 3.14898 14.5069 3.11757C14.5539 3.08523 14.5904 3.04136 14.6163 2.98592C14.6421 2.92956 14.6586 2.86628 14.6661 2.79606V2.5785C14.6623 2.52306 14.6526 2.47179 14.637 2.42467C14.6223 2.37756 14.601 2.33691 14.5733 2.30273C14.5466 2.26854 14.5134 2.24175 14.4738 2.22235C14.4341 2.20295 14.387 2.19325 14.3326 2.19325C14.2764 2.19325 14.2285 2.20571 14.1888 2.23067C14.1491 2.25468 14.1168 2.28841 14.0919 2.33183C14.067 2.37524 14.0485 2.4256 14.0366 2.48288C14.0255 2.54016 14.02 2.60206 14.02 2.66857ZM15.7008 1.92995V3.42937H15.3343V1.92995H15.7008ZM15.3094 1.53777C15.3094 1.48326 15.3278 1.438 15.3647 1.40196C15.4025 1.36593 15.4533 1.34791 15.5169 1.34791C15.5805 1.34791 15.6308 1.36593 15.6677 1.40196C15.7054 1.438 15.7243 1.48326 15.7243 1.53777C15.7243 1.59135 15.7054 1.63615 15.6677 1.67219C15.6308 1.70822 15.5805 1.72624 15.5169 1.72624C15.4533 1.72624 15.4025 1.70822 15.3647 1.67219C15.3278 1.63615 15.3094 1.59135 15.3094 1.53777ZM17.3555 3.13005V3.42937H16.3428V3.13005H17.3555ZM16.4576 1.41166V3.42937H16.0772V1.41166H16.4576ZM18.4069 3.11064V2.41913C18.4069 2.36831 18.3982 2.32443 18.3806 2.28749C18.3631 2.25052 18.3364 2.22189 18.3004 2.20156C18.2644 2.18124 18.2187 2.17108 18.1635 2.17108C18.1146 2.17108 18.0716 2.17939 18.0348 2.19602C17.9988 2.21264 17.9712 2.23621 17.9518 2.2667C17.9324 2.29626 17.9228 2.33044 17.9228 2.36925H17.5561C17.5561 2.30734 17.5708 2.24868 17.6004 2.19325C17.6299 2.13689 17.6719 2.087 17.7263 2.04358C17.7816 1.99923 17.8476 1.96459 17.9241 1.93964C18.0016 1.9147 18.0883 1.90223 18.1841 1.90223C18.2976 1.90223 18.3986 1.92163 18.4872 1.96043C18.5767 1.99831 18.6467 2.05559 18.6974 2.13227C18.7492 2.20895 18.7749 2.3055 18.7749 2.42191V3.076C18.7749 3.15083 18.7795 3.21504 18.7888 3.26862C18.7989 3.32128 18.8136 3.36702 18.8331 3.40582V3.42937H18.4609C18.4434 3.3915 18.4299 3.34345 18.4207 3.28525C18.4115 3.22612 18.4069 3.16793 18.4069 3.11064ZM18.4581 2.51613L18.4609 2.73371H18.2298C18.1727 2.73371 18.1224 2.73972 18.0791 2.75172C18.0357 2.76281 18.0002 2.77944 17.9725 2.80161C17.9448 2.82286 17.9241 2.84872 17.9103 2.87922C17.8964 2.90878 17.8895 2.9425 17.8895 2.98037C17.8895 3.01733 17.8979 3.05059 17.9144 3.08016C17.932 3.10972 17.9569 3.13328 17.9891 3.15083C18.0223 3.16746 18.061 3.17578 18.1053 3.17578C18.1699 3.17578 18.2262 3.16284 18.2741 3.13697C18.322 3.11018 18.3595 3.07784 18.3861 3.03996C18.4129 3.00209 18.4272 2.96605 18.4291 2.93188L18.5342 3.08985C18.5213 3.12773 18.5019 3.16793 18.4761 3.21041C18.4502 3.25292 18.4171 3.29265 18.3765 3.32959C18.336 3.36656 18.2871 3.39704 18.2298 3.42106C18.1727 3.44508 18.1062 3.45709 18.0307 3.45709C17.9337 3.45709 17.8471 3.43769 17.7706 3.39889C17.694 3.36009 17.6335 3.30696 17.5893 3.23952C17.545 3.17208 17.5229 3.0954 17.5229 3.00948C17.5229 2.93002 17.5377 2.85981 17.5672 2.79884C17.5967 2.73786 17.6405 2.6866 17.6986 2.64502C17.7567 2.60252 17.8287 2.57065 17.9144 2.5494C18.0012 2.52722 18.1003 2.51613 18.2119 2.51613H18.4581ZM19.1028 1.3008H19.4694V3.09817L19.4334 3.42937H19.1028V1.3008ZM20.4323 2.66441V2.69351C20.4323 2.80531 20.4199 2.90785 20.395 3.00116C20.371 3.09448 20.3345 3.17532 20.2856 3.24368C20.2368 3.31112 20.176 3.36378 20.103 3.40166C20.0311 3.43861 19.9467 3.45709 19.8499 3.45709C19.7577 3.45709 19.6774 3.43907 19.6092 3.40304C19.5418 3.36702 19.4851 3.3162 19.439 3.25061C19.3929 3.18409 19.356 3.10602 19.3283 3.01641C19.3006 2.92587 19.2799 2.82701 19.266 2.71985V2.64085C19.2799 2.53277 19.3006 2.43391 19.3283 2.3443C19.356 2.25468 19.3929 2.17661 19.439 2.11011C19.4851 2.04358 19.5418 1.99231 19.6092 1.95628C19.6765 1.92025 19.7558 1.90223 19.8471 1.90223C19.9448 1.90223 20.0302 1.92117 20.103 1.95905C20.1768 1.996 20.2377 2.04866 20.2856 2.11702C20.3345 2.18448 20.371 2.26484 20.395 2.35816C20.4199 2.45055 20.4323 2.55262 20.4323 2.66441ZM20.0657 2.69351V2.66441C20.0657 2.60067 20.0606 2.54062 20.0505 2.48426C20.0403 2.42698 20.0237 2.37664 20.0007 2.33322C19.9776 2.28979 19.9462 2.25561 19.9066 2.23067C19.8669 2.20571 19.8171 2.19325 19.7572 2.19325C19.7 2.19325 19.6511 2.20295 19.6105 2.22235C19.5709 2.24175 19.5376 2.26854 19.511 2.30273C19.4851 2.33691 19.4648 2.3771 19.4501 2.42329C19.4362 2.46948 19.427 2.51937 19.4224 2.57295V2.78913C19.4288 2.86028 19.444 2.92449 19.468 2.98176C19.4921 3.03812 19.5275 3.08292 19.5746 3.11619C19.6225 3.14944 19.6843 3.16607 19.7599 3.16607C19.819 3.16607 19.8683 3.15453 19.908 3.13143C19.9477 3.1074 19.9791 3.07415 20.0021 3.03165C20.0251 2.98823 20.0413 2.93789 20.0505 2.8806C20.0606 2.82332 20.0657 2.76097 20.0657 2.69351ZM22.7676 2.24453V2.54385H21.7079V2.24453H22.7676ZM21.8116 1.41166V3.42937H21.4311V1.41166H21.8116ZM23.0498 1.41166V3.42937H22.6694V1.41166H23.0498ZM23.3445 2.69491V2.66581C23.3445 2.55587 23.3602 2.4547 23.3916 2.36232C23.4229 2.269 23.4685 2.18816 23.5285 2.1198C23.5885 2.05144 23.6618 1.99831 23.7485 1.96043C23.8352 1.92163 23.9339 1.90223 24.0445 1.90223C24.157 1.90223 24.2567 1.92163 24.3433 1.96043C24.4309 1.99831 24.5048 2.05144 24.5647 2.1198C24.6247 2.18816 24.6704 2.269 24.7016 2.36232C24.733 2.4547 24.7487 2.55587 24.7487 2.66581V2.69491C24.7487 2.80392 24.733 2.90508 24.7016 2.9984C24.6704 3.09078 24.6247 3.17162 24.5647 3.2409C24.5048 3.30928 24.4314 3.3624 24.3448 3.40027C24.2581 3.43815 24.1589 3.45709 24.0473 3.45709C23.9366 3.45709 23.8375 3.43815 23.7499 3.40027C23.6623 3.3624 23.5885 3.30928 23.5285 3.2409C23.4685 3.17162 23.4229 3.09078 23.3916 2.9984C23.3602 2.90508 23.3445 2.80392 23.3445 2.69491ZM23.7097 2.66581V2.69491C23.7097 2.7605 23.7162 2.82194 23.7291 2.87922C23.7421 2.93649 23.7619 2.98684 23.7886 3.03027C23.8154 3.07369 23.85 3.10787 23.8924 3.13282C23.9357 3.15683 23.9874 3.16885 24.0473 3.16885C24.1063 3.16885 24.157 3.15683 24.1995 3.13282C24.2419 3.10787 24.2765 3.07369 24.3032 3.03027C24.3309 2.98684 24.3512 2.93649 24.3641 2.87922C24.377 2.82194 24.3835 2.7605 24.3835 2.69491V2.66581C24.3835 2.60113 24.377 2.54062 24.3641 2.48426C24.3512 2.42698 24.3309 2.37664 24.3032 2.33322C24.2765 2.28887 24.2415 2.25422 24.1981 2.22928C24.1556 2.20341 24.1045 2.19047 24.0445 2.19047C23.9855 2.19047 23.9347 2.20341 23.8924 2.22928C23.85 2.25422 23.8154 2.28887 23.7886 2.33322C23.7619 2.37664 23.7421 2.42698 23.7291 2.48426C23.7162 2.54062 23.7097 2.60113 23.7097 2.66581ZM25.8376 3.01917C25.8376 2.98777 25.8292 2.95959 25.8127 2.93465C25.796 2.90971 25.7646 2.88707 25.7186 2.86674C25.6733 2.84549 25.6069 2.82563 25.5193 2.80716C25.4418 2.79053 25.3704 2.76974 25.3049 2.74479C25.2394 2.71985 25.1832 2.68982 25.1361 2.65471C25.0891 2.61868 25.0521 2.57665 25.0255 2.52861C24.9996 2.47965 24.9867 2.42329 24.9867 2.35954C24.9867 2.29765 25.0001 2.23944 25.0268 2.18494C25.0536 2.1295 25.0923 2.081 25.143 2.03943C25.1937 1.99692 25.2556 1.96367 25.3284 1.93964C25.4012 1.9147 25.4834 1.90223 25.5747 1.90223C25.7019 1.90223 25.8112 1.92302 25.9025 1.96459C25.9948 2.00616 26.0653 2.06344 26.1142 2.13643C26.163 2.20849 26.1875 2.28979 26.1875 2.38033H25.8223C25.8223 2.34061 25.8131 2.30457 25.7946 2.27223C25.7771 2.2399 25.7498 2.21404 25.713 2.19463C25.6761 2.17431 25.6296 2.16415 25.5732 2.16415C25.5226 2.16415 25.4796 2.17246 25.4446 2.18909C25.4104 2.20571 25.3847 2.22743 25.3671 2.25422C25.3496 2.28102 25.3409 2.31058 25.3409 2.34291C25.3409 2.36693 25.3455 2.38864 25.3547 2.40805C25.3649 2.42652 25.3809 2.44362 25.4031 2.45932C25.4252 2.47503 25.4552 2.48935 25.4931 2.50228C25.5318 2.51521 25.5793 2.52769 25.6356 2.5397C25.7471 2.56187 25.8444 2.59144 25.9274 2.62839C26.0113 2.66441 26.0769 2.71246 26.1238 2.77251C26.171 2.83256 26.1944 2.90925 26.1944 3.00255C26.1944 3.06907 26.1802 3.13005 26.1516 3.18548C26.123 3.23998 26.0815 3.28756 26.027 3.32821C25.9726 3.36886 25.9076 3.40073 25.832 3.42383C25.7563 3.446 25.671 3.45709 25.5761 3.45709C25.4387 3.45709 25.3224 3.4326 25.2275 3.38365C25.1324 3.33375 25.0605 3.27094 25.0115 3.19517C24.9627 3.1185 24.9382 3.03904 24.9382 2.95682H25.2883C25.2911 3.01502 25.3067 3.06167 25.3354 3.09678C25.3639 3.13189 25.3999 3.1573 25.4433 3.173C25.4875 3.18778 25.534 3.19517 25.5829 3.19517C25.6383 3.19517 25.6849 3.18778 25.7227 3.173C25.7605 3.1573 25.789 3.13651 25.8084 3.11064C25.8279 3.08385 25.8376 3.05336 25.8376 3.01917ZM26.8377 2.21819V4.00586H26.4712V1.92995H26.8101L26.8377 2.21819ZM27.7993 2.66441V2.69351C27.7993 2.80253 27.7863 2.9037 27.7606 2.99701C27.7357 3.08939 27.6987 3.17023 27.6498 3.23952C27.601 3.30789 27.54 3.36147 27.4672 3.40027C27.3953 3.43815 27.3123 3.45709 27.2182 3.45709C27.126 3.45709 27.0457 3.43953 26.9775 3.40443C26.9093 3.3684 26.8515 3.31759 26.8046 3.25199C26.7576 3.1864 26.7197 3.11018 26.6911 3.02334C26.6635 2.93557 26.6427 2.83995 26.6289 2.73648V2.64363C26.6427 2.53369 26.6635 2.43391 26.6911 2.3443C26.7197 2.25376 26.7576 2.17569 26.8046 2.11011C26.8515 2.04358 26.9088 1.99231 26.9761 1.95628C27.0443 1.92025 27.1241 1.90223 27.2154 1.90223C27.3104 1.90223 27.3939 1.92025 27.4659 1.95628C27.5387 1.99231 27.6 2.04405 27.6498 2.11149C27.6997 2.17893 27.737 2.25931 27.7619 2.35261C27.7868 2.44592 27.7993 2.54986 27.7993 2.66441ZM27.4326 2.69351V2.66441C27.4326 2.5979 27.4267 2.53646 27.4147 2.48011C27.4026 2.42283 27.3842 2.37294 27.3593 2.33044C27.3344 2.28701 27.3022 2.2533 27.2625 2.22928C27.2228 2.20525 27.1749 2.19325 27.1186 2.19325C27.0624 2.19325 27.0139 2.20249 26.9734 2.22096C26.9328 2.23944 26.8996 2.26578 26.8737 2.29995C26.8479 2.33414 26.8276 2.37478 26.8128 2.42191C26.799 2.4681 26.7898 2.51937 26.7852 2.57572V2.80577C26.7935 2.87414 26.8096 2.93557 26.8336 2.99008C26.8576 3.04459 26.8926 3.08801 26.9388 3.12034C26.9858 3.15268 27.0467 3.16885 27.1214 3.16885C27.1776 3.16885 27.2255 3.15637 27.2652 3.13143C27.3049 3.10648 27.3372 3.07231 27.3621 3.02888C27.387 2.98454 27.405 2.93372 27.4161 2.87644C27.4271 2.81916 27.4326 2.75819 27.4326 2.69351ZM28.4537 1.92995V3.42937H28.087V1.92995H28.4537ZM28.0621 1.53777C28.0621 1.48326 28.0806 1.438 28.1175 1.40196C28.1552 1.36593 28.206 1.34791 28.2696 1.34791C28.3333 1.34791 28.3836 1.36593 28.4204 1.40196C28.4583 1.438 28.4772 1.48326 28.4772 1.53777C28.4772 1.59135 28.4583 1.63615 28.4204 1.67219C28.3836 1.70822 28.3333 1.72624 28.2696 1.72624C28.206 1.72624 28.1552 1.70822 28.1175 1.67219C28.0806 1.63615 28.0621 1.59135 28.0621 1.53777ZM29.5106 1.92995V2.19325H28.6528V1.92995H29.5106ZM28.8826 1.56132H29.2491V2.99701C29.2491 3.04136 29.2552 3.07553 29.2671 3.09955C29.2791 3.12358 29.2971 3.13975 29.321 3.14806C29.3451 3.15637 29.3737 3.16054 29.4069 3.16054C29.4308 3.16054 29.453 3.15914 29.4732 3.15637C29.4935 3.15361 29.5106 3.15083 29.5244 3.14806L29.5259 3.42244C29.4954 3.4326 29.4608 3.44093 29.4221 3.44738C29.3843 3.45385 29.3413 3.45709 29.2934 3.45709C29.2114 3.45709 29.1393 3.44323 29.0776 3.41551C29.0157 3.38687 28.9678 3.34115 28.9337 3.27833C28.8996 3.21458 28.8826 3.13051 28.8826 3.0261V1.56132ZM30.5787 3.11064V2.41913C30.5787 2.36831 30.5698 2.32443 30.5524 2.28749C30.5349 2.25052 30.5081 2.22189 30.4721 2.20156C30.4362 2.18124 30.3905 2.17108 30.3351 2.17108C30.2863 2.17108 30.2434 2.17939 30.2064 2.19602C30.1706 2.21264 30.1428 2.23621 30.1235 2.2667C30.1041 2.29626 30.0944 2.33044 30.0944 2.36925H29.7278C29.7278 2.30734 29.7426 2.24868 29.7721 2.19325C29.8016 2.13689 29.8435 2.087 29.898 2.04358C29.9533 1.99923 30.0192 1.96459 30.0958 1.93964C30.1733 1.9147 30.26 1.90223 30.3559 1.90223C30.4694 1.90223 30.5703 1.92163 30.6588 1.96043C30.7483 1.99831 30.8184 2.05559 30.8692 2.13227C30.9208 2.20895 30.9467 2.3055 30.9467 2.42191V3.076C30.9467 3.15083 30.9513 3.21504 30.9605 3.26862C30.9706 3.32128 30.9854 3.36702 31.0047 3.40582V3.42937H30.6326C30.615 3.3915 30.6017 3.34345 30.5925 3.28525C30.5833 3.22612 30.5787 3.16793 30.5787 3.11064ZM30.6298 2.51613L30.6326 2.73371H30.4016C30.3443 2.73371 30.2942 2.73972 30.2507 2.75172C30.2074 2.76281 30.1719 2.77944 30.1442 2.80161C30.1166 2.82286 30.0958 2.84872 30.082 2.87922C30.0681 2.90878 30.0612 2.9425 30.0612 2.98037C30.0612 3.01733 30.0695 3.05059 30.0861 3.08016C30.1036 3.10972 30.1285 3.13328 30.1609 3.15083C30.1941 3.16746 30.2328 3.17578 30.277 3.17578C30.3416 3.17578 30.3978 3.16284 30.4459 3.13697C30.4938 3.11018 30.5311 3.07784 30.5579 3.03996C30.5847 3.00209 30.599 2.96605 30.6008 2.93188L30.7059 3.08985C30.693 3.12773 30.6736 3.16793 30.6479 3.21041C30.622 3.25292 30.5888 3.29265 30.5482 3.32959C30.5076 3.36656 30.4587 3.39704 30.4016 3.42106C30.3443 3.44508 30.278 3.45709 30.2023 3.45709C30.1055 3.45709 30.0189 3.43769 29.9422 3.39889C29.8657 3.36009 29.8053 3.30696 29.761 3.23952C29.7168 3.17208 29.6946 3.0954 29.6946 3.00948C29.6946 2.93002 29.7093 2.85981 29.7388 2.79884C29.7683 2.73786 29.8123 2.6866 29.8703 2.64502C29.9284 2.60252 30.0003 2.57065 30.0861 2.5494C30.1728 2.52722 30.272 2.51613 30.3835 2.51613H30.6298ZM31.6633 1.3008V3.42937H31.2967V1.3008H31.6633Z" fill="black"/>
</g>
<g filter="url(#filter1_d_1702_2)">
<path d="M7.54167 4.73017V4.3923C7.54167 4.34793 7.53404 4.304 7.5192 4.263C7.50437 4.22202 7.48264 4.18477 7.45524 4.15338C7.42782 4.122 7.39528 4.09712 7.35949 4.08014C7.32367 4.06317 7.28529 4.05443 7.24653 4.05443H6.06589C5.67451 4.05443 5.29917 3.87645 5.02241 3.55963C4.74566 3.24282 4.59018 2.81314 4.59017 2.36509C4.59017 2.14324 4.62835 1.92356 4.70251 1.7186C4.77668 1.51363 4.88537 1.3274 5.02241 1.17053C5.15944 1.01366 5.32212 0.889225 5.50116 0.804331C5.6802 0.719436 5.8721 0.675741 6.06589 0.675741H7.24645C7.2852 0.675764 7.32361 0.667026 7.35941 0.650056C7.39523 0.633087 7.42779 0.608194 7.45519 0.576821C7.48262 0.545448 7.50435 0.508198 7.5192 0.467199C7.53404 0.426201 7.54167 0.382257 7.54167 0.337876V0H6.06596C5.79465 0 5.526 0.061173 5.27534 0.18003C5.02469 0.298888 4.79694 0.4731 4.6051 0.692722C4.41326 0.912344 4.26108 1.17306 4.15725 1.46002C4.05343 1.74696 4 2.0545 4 2.36509C4 2.99233 4.21766 3.59391 4.60511 4.03745C4.99254 4.48099 5.51803 4.73017 6.06596 4.73017H7.54167Z" fill="url(#paint0_linear_1702_2)"/>
<path d="M5.18044 2.36509C5.18044 2.63391 5.27373 2.89171 5.43977 3.08178C5.60581 3.27187 5.83101 3.37866 6.06583 3.37866H7.54166C7.69821 3.37866 7.84833 3.44986 7.95902 3.57658C8.06972 3.7033 8.13191 3.87518 8.13191 4.0544V4.73015H8.7222V4.05443C8.7222 3.696 8.59783 3.35225 8.37644 3.09878C8.15503 2.84534 7.85475 2.70296 7.54166 2.70296H6.06587C5.9876 2.70296 5.91253 2.66736 5.85717 2.60401C5.80182 2.54064 5.77073 2.4547 5.77073 2.36509C5.77073 2.27547 5.80182 2.18954 5.85717 2.12618C5.91253 2.0628 5.9876 2.02721 6.06587 2.02721H7.54166C7.85475 2.02721 8.15503 1.88483 8.37644 1.63138C8.59783 1.37794 8.7222 1.03418 8.7222 0.675741V0H8.13183V0.675741C8.13183 0.854943 8.06965 1.0268 7.95898 1.15351C7.84831 1.28023 7.69819 1.35143 7.54166 1.35147H6.06587C5.94959 1.35146 5.83445 1.37767 5.72702 1.42861C5.61959 1.47955 5.52199 1.55422 5.43977 1.64834C5.35755 1.74245 5.29232 1.8542 5.24783 1.97719C5.20333 2.10016 5.18044 2.23198 5.18044 2.36509Z" fill="url(#paint1_linear_1702_2)"/>
</g>
<defs>
<filter id="filter0_d_1702_2" x="5.74092" y="1.3008" width="29.9223" height="10.7051" filterUnits="userSpaceOnUse" color-interpolation-filters="sRGB">
<feFlood flood-opacity="0" result="BackgroundImageFix"/>
<feColorMatrix in="SourceAlpha" type="matrix" values="0 0 0 0 0 0 0 0 0 0 0 0 0 0 0 0 0 0 127 0" result="hardAlpha"/>
<feOffset dy="4"/>
<feGaussianBlur stdDeviation="2"/>
<feComposite in2="hardAlpha" operator="out"/>
<feColorMatrix type="matrix" values="0 0 0 0 0 0 0 0 0 0 0 0 0 0 0 0 0 0 0.25 0"/>
<feBlend mode="normal" in2="BackgroundImageFix" result="effect1_dropShadow_1702_2"/>
<feBlend mode="normal" in="SourceGraphic" in2="effect1_dropShadow_1702_2" result="shape"/>
</filter>
<filter id="filter1_d_1702_2" x="0" y="0" width="12.7222" height="12.7302" filterUnits="userSpaceOnUse" color-interpolation-filters="sRGB">
<feFlood flood-opacity="0" result="BackgroundImageFix"/>
<feColorMatrix in="SourceAlpha" type="matrix" values="0 0 0 0 0 0 0 0 0 0 0 0 0 0 0 0 0 0 127 0" result="hardAlpha"/>
<feOffset dy="4"/>
<feGaussianBlur stdDeviation="2"/>
<feComposite in2="hardAlpha" operator="out"/>
<feColorMatrix type="matrix" values="0 0 0 0 0 0 0 0 0 0 0 0 0 0 0 0 0 0 0.25 0"/>
<feBlend mode="normal" in2="BackgroundImageFix" result="effect1_dropShadow_1702_2"/>
<feBlend mode="normal" in="SourceGraphic" in2="effect1_dropShadow_1702_2" result="shape"/>
</filter>
<linearGradient id="paint0_linear_1702_2" x1="4.53479" y1="2.36509" x2="9.07875" y2="2.36509" gradientUnits="userSpaceOnUse">
<stop stop-color="#817696"/>
<stop offset="1" stop-color="#817698"/>
</linearGradient>
<linearGradient id="paint1_linear_1702_2" x1="4.5323" y1="2.36507" x2="9.07993" y2="2.36507" gradientUnits="userSpaceOnUse">
<stop stop-color="#8575D2"/>
<stop offset="1" stop-color="#9083D5"/>
</linearGradient>
</defs>
</svg>
